<svg id="visual" viewBox="0 0 960 540" width="960" height="540" xmlns="http://www.w3.org/2000/svg" xmlns:xlink="http://www.w3.org/1999/xlink" version="1.1"><rect x="0" y="0" width="960" height="540" fill="#112d4e"></rect><defs><linearGradient id="grad1_0" x1="43.8%" y1="100%" x2="100%" y2="0%"><stop offset="14.444444444444446%" stop-color="#112d4e" stop-opacity="1"></stop><stop offset="85.55555555555554%" stop-color="#112d4e" stop-opacity="1"></stop></linearGradient></defs><defs><linearGradient id="grad2_0" x1="0%" y1="100%" x2="56.3%" y2="0%"><stop offset="14.444444444444446%" stop-color="#112d4e" stop-opacity="1"></stop><stop offset="85.55555555555554%" stop-color="#112d4e" stop-opacity="1"></stop></linearGradient></defs><g transform="translate(960, 540)"><path d="M-469 0C-443.9 -17.3 -418.8 -34.6 -437.5 -62.9C-456.2 -91.2 -518.6 -130.4 -518.1 -152.1C-517.7 -173.8 -454.4 -178 -428.4 -195.7C-402.5 -213.3 -413.9 -244.6 -395.4 -254.1C-376.8 -263.6 -328.3 -251.4 -318.2 -275.7C-308.1 -300 -336.4 -360.8 -322.8 -372.6C-309.3 -384.4 -253.7 -347.2 -231.4 -360.1C-209.1 -373 -220 -436 -204 -446.6C-188 -457.3 -145 -415.5 -117.5 -400.1C-89.9 -384.7 -77.8 -395.6 -60.8 -422.7C-43.8 -449.7 -21.9 -492.8 0 -536L0 0Z" fill="#23D997"></path></g><g transform="translate(0, 0)"><path d="M532 0C520.5 23 509 46.1 513.7 73.9C518.4 101.6 539.3 134.2 518.1 152.1C496.9 170.1 433.6 173.5 399.3 182.4C365 191.2 359.7 205.4 365.1 234.6C370.5 263.8 386.6 308 368.1 318.9C349.5 329.8 296.5 307.5 268.5 309.9C240.5 312.2 237.6 339.3 224.4 349.1C211.1 359 187.5 351.6 177 387.5C166.4 423.4 168.9 502.5 151 514.3C133.1 526.1 94.9 470.7 66.3 461.3C37.8 451.8 18.9 488.4 0 525L0 0Z" fill="#23D997"></path></g></svg>