<svg id="visual" viewBox="0 0 900 600" width="900" height="600" xmlns="http://www.w3.org/2000/svg" xmlns:xlink="http://www.w3.org/1999/xlink" version="1.1"><rect x="0" y="0" width="900" height="600" fill="#112d4e"></rect><defs><linearGradient id="grad1_0" x1="33.3%" y1="100%" x2="100%" y2="0%"><stop offset="20%" stop-color="#112d4e" stop-opacity="1"></stop><stop offset="80%" stop-color="#112d4e" stop-opacity="1"></stop></linearGradient></defs><defs><linearGradient id="grad2_0" x1="0%" y1="100%" x2="66.7%" y2="0%"><stop offset="20%" stop-color="#112d4e" stop-opacity="1"></stop><stop offset="80%" stop-color="#112d4e" stop-opacity="1"></stop></linearGradient></defs><g transform="translate(900, 600)"><path d="M-480 0C-494.4 -26.9 -508.9 -53.7 -483 -69.4C-457.2 -85.2 -391.1 -89.8 -388.6 -114.1C-386.1 -138.4 -447.2 -182.4 -455.7 -208.1C-464.2 -233.9 -420.2 -241.3 -391.2 -251.4C-362.2 -261.5 -348.3 -274.1 -340.1 -294.7C-331.8 -315.2 -329.2 -343.6 -322.2 -371.8C-315.2 -400 -303.7 -428 -286 -445C-268.3 -462.1 -244.2 -468.2 -222.2 -486.7C-200.3 -505.1 -180.3 -535.9 -152.4 -518.9C-124.4 -501.9 -88.4 -437.2 -61.6 -428.6C-34.9 -420 -17.4 -467.5 0 -515L0 0Z" fill="#3f72af"></path></g><g transform="translate(0, 0)"><path d="M509 0C515.6 27.2 522.2 54.4 497.9 71.6C473.5 88.8 418.2 96 419.3 123.1C420.4 150.2 477.7 197.2 474.8 216.8C471.9 236.5 408.7 228.7 396.2 254.6C383.8 280.6 422.1 340.2 402.1 348.4C382 356.6 303.5 313.4 267.2 308.3C230.8 303.3 236.6 336.4 230.9 359.2C225.2 382 208 394.6 195.2 427.5C182.5 460.5 174 513.8 152.4 518.9C130.7 524.1 95.9 481 68.3 475.1C40.7 469.3 20.4 500.6 0 532L0 0Z" fill="#3f72af"></path></g></svg>