<svg id="visual" viewBox="0 0 960 540" width="960" height="540" xmlns="http://www.w3.org/2000/svg" xmlns:xlink="http://www.w3.org/1999/xlink" version="1.1"><path d="M0 87L87 71L175 55L262 44L349 93L436 87L524 66L611 82L698 71L785 82L873 44L960 39L960 0L873 0L785 0L698 0L611 0L524 0L436 0L349 0L262 0L175 0L87 0L0 0Z" fill="#112d4e"></path><path d="M0 195L87 260L175 163L262 217L349 309L436 228L524 168L611 244L698 244L785 179L873 287L960 141L960 37L873 42L785 80L698 69L611 80L524 64L436 85L349 91L262 42L175 53L87 69L0 85Z" fill="#034361"></path><path d="M0 244L87 363L175 266L262 303L349 357L436 314L524 249L611 309L698 390L785 266L873 401L960 260L960 139L873 285L785 177L698 242L611 242L524 166L436 226L349 307L262 215L175 161L87 258L0 193Z" fill="#005970"></path><path d="M0 498L87 492L175 503L262 476L349 482L436 471L524 476L611 487L698 482L785 498L873 492L960 428L960 258L873 399L785 264L698 388L611 307L524 247L436 312L349 355L262 301L175 264L87 361L0 242Z" fill="#006f78"></path><path d="M0 541L87 541L175 541L262 541L349 541L436 541L524 541L611 541L698 541L785 541L873 541L960 541L960 426L873 490L785 496L698 480L611 485L524 474L436 469L349 480L262 474L175 501L87 490L0 496Z" fill="#038373"></path></svg>